<svg xmlns="http://www.w3.org/2000/svg" xmlns:xlink="http://www.w3.org/1999/xlink" width="500" zoomAndPan="magnify" viewBox="0 0 375 74.999997" height="100" preserveAspectRatio="xMidYMid meet" version="1.0"><defs><g/><clipPath id="4df20e86f7"><path d="M 22 59 L 41 59 L 41 67.367188 L 22 67.367188 Z M 22 59 " clip-rule="nonzero"/></clipPath><clipPath id="f3a2473dd5"><path d="M 75 19 L 186.09375 19 L 186.09375 52 L 75 52 Z M 75 19 " clip-rule="nonzero"/></clipPath><clipPath id="2859650169"><path d="M 4 28 L 60 28 L 60 67.367188 L 4 67.367188 Z M 4 28 " clip-rule="nonzero"/></clipPath></defs><rect x="-37.5" width="450" fill="#ffffff" y="-7.5" height="89.999996" fill-opacity="1"/><rect x="-37.5" width="450" fill="#ffffff" y="-7.5" height="89.999996" fill-opacity="1"/><rect x="-37.5" width="450" fill="#ffffff" y="-7.5" height="89.999996" fill-opacity="1"/><path fill="#ff0000" d="M 78.425781 25.652344 L 63.46875 28.191406 C 62.359375 28.378906 61.40625 29.082031 60.898438 30.082031 L 48.597656 54.320312 L 63.609375 31.832031 C 63.886719 31.414062 64.289062 31.089844 64.761719 30.910156 L 78.425781 25.652344 " fill-opacity="1" fill-rule="nonzero"/><path fill="#ff0000" d="M 62.210938 18.683594 C 70.863281 8.511719 81.757812 11 81.757812 11 C 67.726562 8.125 55.875 15.375 52.875 18.683594 L 62.210938 18.683594 " fill-opacity="1" fill-rule="nonzero"/><path fill="#ff0000" d="M 50.820312 22.511719 L 82.867188 22.511719 L 76.203125 45.316406 L 86.199219 19.789062 L 52.714844 19.789062 C 51.667969 19.789062 50.820312 20.636719 50.820312 21.679688 L 50.820312 22.511719 " fill-opacity="1" fill-rule="nonzero"/><g clip-path="url(#4df20e86f7)"><path fill="#ff0000" d="M 39.683594 65.167969 C 37.976562 60.539062 32.832031 58.164062 28.1875 59.863281 C 24.898438 61.066406 22.746094 63.988281 22.375 67.234375 L 24.039062 67.234375 C 25.367188 63.332031 27.109375 61.808594 29.609375 61.089844 C 33.929688 59.847656 38.507812 62.753906 40.054688 66.960938 C 40.101562 67.089844 40.148438 67.222656 40.1875 67.351562 C 40.113281 66.621094 39.949219 65.890625 39.683594 65.167969 " fill-opacity="1" fill-rule="nonzero"/></g><path fill="#ff0000" d="M 165.0625 61.527344 L 44.378906 66.382812 L 160.191406 66.382812 C 162.878906 66.382812 165.0625 64.210938 165.0625 61.527344 " fill-opacity="1" fill-rule="nonzero"/><path fill="#ff0000" d="M 79.089844 55.722656 L 79.089844 55.734375 L 46.992188 56.660156 L 76.816406 56.660156 C 77.335938 56.660156 77.757812 57.082031 77.757812 57.601562 L 75.59375 66.382812 L 78.035156 66.382812 L 80.035156 56.660156 C 80.035156 56.140625 79.613281 55.722656 79.089844 55.722656 " fill-opacity="1" fill-rule="nonzero"/><g clip-path="url(#f3a2473dd5)"><path fill="#ff0000" d="M 75.8125 51.957031 L 86.757812 23.679688 C 87.792969 21.007812 90.363281 19.25 93.234375 19.25 L 186.101562 19.25 L 106.132812 22.777344 L 173.4375 23.773438 L 98.75 28.421875 L 159.113281 28.421875 L 93.136719 34.066406 L 144.785156 32.296875 L 88.472656 39.195312 L 132.453125 37.386719 L 92.230469 42.414062 C 85.679688 43.234375 79.753906 46.679688 75.8125 51.957031 " fill-opacity="1" fill-rule="nonzero"/></g><path fill="#ff0000" d="M 17.667969 61.050781 C 17.667969 61.050781 12.558594 51.957031 24.222656 51 L 17.667969 61.050781 " fill-opacity="1" fill-rule="nonzero"/><path fill="#ff0000" d="M 50.839844 27.839844 C 51.011719 27.6875 51.222656 27.585938 51.449219 27.550781 L 78.425781 23.398438 L 53.285156 23.398438 C 50.234375 23.398438 47.363281 24.839844 45.550781 27.285156 L 37.816406 37.714844 C 37.773438 37.773438 37.726562 37.828125 37.683594 37.878906 L 50.839844 27.839844 " fill-opacity="1" fill-rule="nonzero"/><g clip-path="url(#2859650169)"><path fill="#ff0000" d="M 36.683594 38.617188 L 36.6875 38.613281 C 36.445312 38.722656 36.1875 38.796875 35.921875 38.832031 L 26.597656 40.070312 C 20.640625 40.863281 15.425781 44.453125 12.574219 49.730469 L 4.449219 64.765625 C 3.847656 65.878906 4.65625 67.234375 5.929688 67.234375 L 23.011719 67.234375 L 23.011719 65.535156 L 9.050781 65.535156 C 7.6875 65.535156 6.890625 64.003906 7.679688 62.894531 L 17.808594 48.648438 C 19.496094 46.515625 21.96875 45.144531 24.675781 44.84375 L 46.671875 42.390625 C 47.621094 42.28125 48.5 41.84375 49.164062 41.160156 C 50.878906 39.386719 52.457031 38.460938 53.476562 37.996094 C 54.289062 37.625 54.957031 37.003906 55.378906 36.222656 L 59.542969 28.492188 L 51.796875 29.4375 C 42.976562 36.015625 36.683594 38.617188 36.683594 38.617188 " fill-opacity="1" fill-rule="nonzero"/></g><g fill="#000000" fill-opacity="1"><g transform="translate(180.34956, 45.006205)"><g><path d="M 11.5 -12.53125 L 11.5 0 L 6.09375 0 L 6.09375 -12.53125 L 0.5625 -12.53125 L 0.5625 -16.828125 L 17 -16.828125 L 17 -12.53125 Z M 11.5 -12.53125 "/></g></g></g><g fill="#000000" fill-opacity="1"><g transform="translate(198.001407, 45.006205)"><g><path d="M 13.171875 0 L 13.171875 -6.390625 L 7.21875 -6.390625 L 7.21875 0 L 1.8125 0 L 1.8125 -16.828125 L 7.21875 -16.828125 L 7.21875 -10.6875 L 13.171875 -10.6875 L 13.171875 -16.828125 L 18.578125 -16.828125 L 18.578125 0 Z M 13.171875 0 "/></g></g></g><g fill="#000000" fill-opacity="1"><g transform="translate(218.36705, 45.006205)"><g><path d="M 2.0625 0 L 2.0625 -16.828125 L 7.46875 -16.828125 L 7.46875 0 Z M 2.0625 0 "/></g></g></g><g fill="#000000" fill-opacity="1"><g transform="translate(227.877536, 45.006205)"><g><path d="M 8.875 -17.125 C 11.03125 -17.125 12.800781 -16.6875 14.1875 -15.8125 C 15.570312 -14.945312 16.285156 -13.65625 16.328125 -11.9375 L 16.328125 -11.640625 L 11.25 -11.640625 L 11.25 -11.75 C 11.25 -12.238281 11.066406 -12.644531 10.703125 -12.96875 C 10.347656 -13.289062 9.804688 -13.453125 9.078125 -13.453125 C 8.359375 -13.453125 7.804688 -13.347656 7.421875 -13.140625 C 7.035156 -12.929688 6.84375 -12.671875 6.84375 -12.359375 C 6.84375 -11.921875 7.101562 -11.59375 7.625 -11.375 C 8.15625 -11.164062 9 -10.945312 10.15625 -10.71875 C 11.507812 -10.4375 12.617188 -10.144531 13.484375 -9.84375 C 14.359375 -9.539062 15.125 -9.046875 15.78125 -8.359375 C 16.4375 -7.679688 16.769531 -6.753906 16.78125 -5.578125 C 16.78125 -3.585938 16.109375 -2.109375 14.765625 -1.140625 C 13.421875 -0.179688 11.625 0.296875 9.375 0.296875 C 6.75 0.296875 4.703125 -0.140625 3.234375 -1.015625 C 1.773438 -1.898438 1.046875 -3.460938 1.046875 -5.703125 L 6.171875 -5.703125 C 6.171875 -4.847656 6.390625 -4.28125 6.828125 -4 C 7.265625 -3.71875 7.945312 -3.578125 8.875 -3.578125 C 9.5625 -3.578125 10.128906 -3.648438 10.578125 -3.796875 C 11.023438 -3.941406 11.25 -4.242188 11.25 -4.703125 C 11.25 -5.109375 11 -5.410156 10.5 -5.609375 C 10.007812 -5.816406 9.203125 -6.035156 8.078125 -6.265625 C 6.703125 -6.554688 5.566406 -6.859375 4.671875 -7.171875 C 3.773438 -7.492188 2.992188 -8.019531 2.328125 -8.75 C 1.660156 -9.488281 1.328125 -10.488281 1.328125 -11.75 C 1.328125 -13.59375 2.039062 -14.945312 3.46875 -15.8125 C 4.894531 -16.6875 6.695312 -17.125 8.875 -17.125 Z M 8.875 -17.125 "/></g></g></g><g fill="#000000" fill-opacity="1"><g transform="translate(245.529382, 45.006205)"><g/></g></g><g fill="#000000" fill-opacity="1"><g transform="translate(253.670743, 45.006205)"><g><path d="M 11.5 -12.53125 L 11.5 0 L 6.09375 0 L 6.09375 -12.53125 L 0.5625 -12.53125 L 0.5625 -16.828125 L 17 -16.828125 L 17 -12.53125 Z M 11.5 -12.53125 "/></g></g></g><g fill="#000000" fill-opacity="1"><g transform="translate(271.32259, 45.006205)"><g><path d="M 17.78125 -11.671875 C 17.78125 -10.640625 17.503906 -9.707031 16.953125 -8.875 C 16.398438 -8.050781 15.59375 -7.441406 14.53125 -7.046875 L 18.28125 0 L 12.203125 0 L 9.21875 -6.140625 L 7.21875 -6.140625 L 7.21875 0 L 1.8125 0 L 1.8125 -16.828125 L 12.109375 -16.828125 C 13.316406 -16.828125 14.347656 -16.59375 15.203125 -16.125 C 16.054688 -15.664062 16.695312 -15.039062 17.125 -14.25 C 17.5625 -13.457031 17.78125 -12.597656 17.78125 -11.671875 Z M 12.28125 -11.453125 C 12.28125 -11.890625 12.132812 -12.253906 11.84375 -12.546875 C 11.550781 -12.847656 11.191406 -13 10.765625 -13 L 7.21875 -13 L 7.21875 -9.890625 L 10.765625 -9.890625 C 11.191406 -9.890625 11.550781 -10.039062 11.84375 -10.34375 C 12.132812 -10.644531 12.28125 -11.015625 12.28125 -11.453125 Z M 12.28125 -11.453125 "/></g></g></g><g fill="#000000" fill-opacity="1"><g transform="translate(290.343562, 45.006205)"><g><path d="M 18.578125 -6.78125 C 18.578125 -4.476562 17.847656 -2.722656 16.390625 -1.515625 C 14.941406 -0.304688 12.878906 0.296875 10.203125 0.296875 C 7.523438 0.296875 5.457031 -0.304688 4 -1.515625 C 2.539062 -2.722656 1.8125 -4.476562 1.8125 -6.78125 L 1.8125 -16.828125 L 7.21875 -16.828125 L 7.21875 -6.84375 C 7.21875 -5.90625 7.46875 -5.15625 7.96875 -4.59375 C 8.476562 -4.03125 9.210938 -3.75 10.171875 -3.75 C 11.140625 -3.75 11.878906 -4.03125 12.390625 -4.59375 C 12.910156 -5.164062 13.171875 -5.914062 13.171875 -6.84375 L 13.171875 -16.828125 L 18.578125 -16.828125 Z M 18.578125 -6.78125 "/></g></g></g><g fill="#000000" fill-opacity="1"><g transform="translate(310.709204, 45.006205)"><g><path d="M 9.84375 -17.125 C 12.332031 -17.125 14.300781 -16.5 15.75 -15.25 C 17.207031 -14.007812 17.9375 -12.226562 17.9375 -9.90625 L 12.765625 -9.90625 C 12.765625 -10.882812 12.507812 -11.660156 12 -12.234375 C 11.488281 -12.804688 10.757812 -13.09375 9.8125 -13.09375 C 8.71875 -13.09375 7.910156 -12.75 7.390625 -12.0625 C 6.878906 -11.375 6.625 -10.421875 6.625 -9.203125 L 6.625 -7.640625 C 6.625 -6.429688 6.878906 -5.476562 7.390625 -4.78125 C 7.910156 -4.09375 8.703125 -3.75 9.765625 -3.75 C 10.804688 -3.75 11.59375 -4.015625 12.125 -4.546875 C 12.664062 -5.085938 12.9375 -5.847656 12.9375 -6.828125 L 17.9375 -6.828125 C 17.9375 -4.523438 17.226562 -2.757812 15.8125 -1.53125 C 14.40625 -0.3125 12.414062 0.296875 9.84375 0.296875 C 6.96875 0.296875 4.789062 -0.4375 3.3125 -1.90625 C 1.832031 -3.375 1.09375 -5.546875 1.09375 -8.421875 C 1.09375 -11.285156 1.832031 -13.453125 3.3125 -14.921875 C 4.789062 -16.390625 6.96875 -17.125 9.84375 -17.125 Z M 9.84375 -17.125 "/></g></g></g><g fill="#000000" fill-opacity="1"><g transform="translate(329.730176, 45.006205)"><g><path d="M 13.21875 -16.828125 L 19.921875 -16.828125 L 13.875 -9.90625 L 20.046875 0 L 13.65625 0 L 10.15625 -6.171875 L 7.21875 -3.765625 L 7.21875 0 L 1.8125 0 L 1.8125 -16.828125 L 7.21875 -16.828125 L 7.21875 -9.640625 Z M 13.21875 -16.828125 "/></g></g></g><g fill="#000000" fill-opacity="1"><g transform="translate(226.242921, 64.341223)"><g><path d="M 0.375 -3.902344 C 0.375 -3.742188 0.425781 -3.628906 0.527344 -3.527344 L 1.402344 -2.675781 C 1.488281 -2.601562 1.601562 -2.539062 1.726562 -2.539062 L 4.292969 -2.539062 C 4.378906 -2.539062 4.441406 -2.515625 4.503906 -2.453125 L 4.691406 -2.226562 C 4.714844 -2.1875 4.730469 -2.152344 4.730469 -2.101562 L 4.730469 -1.800781 C 4.730469 -1.714844 4.703125 -1.652344 4.640625 -1.589844 L 4.367188 -1.339844 C 4.292969 -1.277344 4.242188 -1.238281 4.179688 -1.238281 L 0.777344 -1.238281 C 0.675781 -1.238281 0.589844 -1.152344 0.589844 -1.050781 L 0.589844 -0.1875 C 0.589844 -0.0859375 0.675781 0 0.777344 0 L 4.527344 0 C 4.679688 0 4.777344 -0.0390625 4.890625 -0.148438 L 5.890625 -1.152344 C 5.96875 -1.226562 6.042969 -1.351562 6.042969 -1.476562 L 6.042969 -2.515625 C 6.042969 -2.675781 5.992188 -2.800781 5.890625 -2.890625 L 5.140625 -3.617188 C 5.054688 -3.691406 4.941406 -3.753906 4.816406 -3.753906 L 2.125 -3.753906 C 2.039062 -3.753906 1.976562 -3.777344 1.914062 -3.839844 L 1.726562 -4.066406 C 1.703125 -4.101562 1.6875 -4.140625 1.6875 -4.191406 L 1.6875 -4.453125 C 1.6875 -4.542969 1.714844 -4.605469 1.777344 -4.667969 L 2.050781 -4.917969 C 2.125 -4.980469 2.175781 -5.015625 2.238281 -5.015625 L 5.515625 -5.015625 C 5.617188 -5.015625 5.703125 -5.105469 5.703125 -5.203125 L 5.703125 -6.066406 C 5.703125 -6.167969 5.617188 -6.253906 5.515625 -6.253906 L 1.890625 -6.253906 C 1.738281 -6.253906 1.640625 -6.21875 1.527344 -6.105469 L 0.527344 -5.105469 C 0.449219 -5.027344 0.375 -4.902344 0.375 -4.777344 Z M 0.375 -3.902344 "/></g></g></g><g fill="#000000" fill-opacity="1"><g transform="translate(238.053206, 64.341223)"><g><path d="M 5.855469 -6.253906 L 5.015625 -6.253906 C 4.917969 -6.253906 4.828125 -6.167969 4.828125 -6.066406 L 4.828125 -3.839844 C 4.828125 -3.753906 4.804688 -3.703125 4.742188 -3.628906 L 3.964844 -2.839844 L 3.890625 -2.777344 C 3.851562 -2.753906 3.816406 -2.738281 3.765625 -2.738281 L 2.652344 -2.738281 C 2.589844 -2.738281 2.550781 -2.753906 2.527344 -2.777344 L 2.453125 -2.839844 L 1.675781 -3.628906 C 1.601562 -3.703125 1.589844 -3.753906 1.589844 -3.839844 L 1.589844 -6.066406 C 1.589844 -6.167969 1.5 -6.253906 1.402344 -6.253906 L 0.5625 -6.253906 C 0.460938 -6.253906 0.375 -6.167969 0.375 -6.066406 L 0.375 -3.515625 C 0.375 -3.390625 0.414062 -3.289062 0.511719 -3.191406 L 1.964844 -1.652344 C 2.050781 -1.550781 2.175781 -1.5 2.339844 -1.5 L 2.550781 -1.5 L 2.550781 -0.1875 C 2.550781 -0.0859375 2.640625 0 2.738281 0 L 3.679688 0 C 3.777344 0 3.867188 -0.0859375 3.867188 -0.1875 L 3.867188 -1.5 L 4.078125 -1.5 C 4.242188 -1.5 4.355469 -1.550781 4.453125 -1.652344 L 5.90625 -3.191406 C 5.992188 -3.289062 6.042969 -3.390625 6.042969 -3.515625 L 6.042969 -6.066406 C 6.042969 -6.167969 5.953125 -6.253906 5.855469 -6.253906 Z M 5.855469 -6.253906 "/></g></g></g><g fill="#000000" fill-opacity="1"><g transform="translate(249.863491, 64.341223)"><g><path d="M 0.375 -3.902344 C 0.375 -3.742188 0.425781 -3.628906 0.527344 -3.527344 L 1.402344 -2.675781 C 1.488281 -2.601562 1.601562 -2.539062 1.726562 -2.539062 L 4.292969 -2.539062 C 4.378906 -2.539062 4.441406 -2.515625 4.503906 -2.453125 L 4.691406 -2.226562 C 4.714844 -2.1875 4.730469 -2.152344 4.730469 -2.101562 L 4.730469 -1.800781 C 4.730469 -1.714844 4.703125 -1.652344 4.640625 -1.589844 L 4.367188 -1.339844 C 4.292969 -1.277344 4.242188 -1.238281 4.179688 -1.238281 L 0.777344 -1.238281 C 0.675781 -1.238281 0.589844 -1.152344 0.589844 -1.050781 L 0.589844 -0.1875 C 0.589844 -0.0859375 0.675781 0 0.777344 0 L 4.527344 0 C 4.679688 0 4.777344 -0.0390625 4.890625 -0.148438 L 5.890625 -1.152344 C 5.96875 -1.226562 6.042969 -1.351562 6.042969 -1.476562 L 6.042969 -2.515625 C 6.042969 -2.675781 5.992188 -2.800781 5.890625 -2.890625 L 5.140625 -3.617188 C 5.054688 -3.691406 4.941406 -3.753906 4.816406 -3.753906 L 2.125 -3.753906 C 2.039062 -3.753906 1.976562 -3.777344 1.914062 -3.839844 L 1.726562 -4.066406 C 1.703125 -4.101562 1.6875 -4.140625 1.6875 -4.191406 L 1.6875 -4.453125 C 1.6875 -4.542969 1.714844 -4.605469 1.777344 -4.667969 L 2.050781 -4.917969 C 2.125 -4.980469 2.175781 -5.015625 2.238281 -5.015625 L 5.515625 -5.015625 C 5.617188 -5.015625 5.703125 -5.105469 5.703125 -5.203125 L 5.703125 -6.066406 C 5.703125 -6.167969 5.617188 -6.253906 5.515625 -6.253906 L 1.890625 -6.253906 C 1.738281 -6.253906 1.640625 -6.21875 1.527344 -6.105469 L 0.527344 -5.105469 C 0.449219 -5.027344 0.375 -4.902344 0.375 -4.777344 Z M 0.375 -3.902344 "/></g></g></g><g fill="#000000" fill-opacity="1"><g transform="translate(261.673778, 64.341223)"><g><path d="M 6.941406 -6.253906 L 0.5625 -6.253906 C 0.460938 -6.253906 0.375 -6.167969 0.375 -6.066406 L 0.375 -5.128906 C 0.375 -5.027344 0.460938 -4.941406 0.5625 -4.941406 L 3.101562 -4.941406 L 3.101562 -0.1875 C 3.101562 -0.0859375 3.191406 0 3.289062 0 L 4.230469 0 C 4.328125 0 4.417969 -0.0859375 4.417969 -0.1875 L 4.417969 -4.941406 L 6.941406 -4.941406 C 7.042969 -4.941406 7.132812 -5.027344 7.132812 -5.128906 L 7.132812 -6.066406 C 7.132812 -6.167969 7.042969 -6.253906 6.941406 -6.253906 Z M 6.941406 -6.253906 "/></g></g></g><g fill="#000000" fill-opacity="1"><g transform="translate(274.572198, 64.341223)"><g><path d="M 1.777344 -4.542969 L 2.175781 -4.917969 C 2.25 -4.992188 2.300781 -5.015625 2.363281 -5.015625 L 5.667969 -5.015625 C 5.765625 -5.015625 5.855469 -5.105469 5.855469 -5.203125 L 5.855469 -6.066406 C 5.855469 -6.167969 5.765625 -6.253906 5.667969 -6.253906 L 1.925781 -6.253906 C 1.777344 -6.253906 1.675781 -6.21875 1.5625 -6.105469 L 0.527344 -5.078125 C 0.449219 -5.003906 0.375 -4.878906 0.375 -4.753906 L 0.375 -1.527344 C 0.375 -1.363281 0.425781 -1.25 0.527344 -1.152344 L 1.5625 -0.136719 C 1.652344 -0.0507812 1.765625 0 1.890625 0 L 5.667969 0 C 5.765625 0 5.855469 -0.0859375 5.855469 -0.1875 L 5.855469 -1.027344 C 5.855469 -1.125 5.765625 -1.214844 5.667969 -1.214844 L 2.378906 -1.214844 C 2.289062 -1.214844 2.226562 -1.238281 2.164062 -1.300781 L 1.726562 -1.777344 C 1.703125 -1.8125 1.6875 -1.851562 1.6875 -1.902344 L 1.6875 -2.539062 L 5.054688 -2.539062 C 5.15625 -2.539062 5.242188 -2.628906 5.242188 -2.726562 L 5.242188 -3.589844 C 5.242188 -3.691406 5.15625 -3.777344 5.054688 -3.777344 L 1.6875 -3.777344 L 1.6875 -4.328125 C 1.6875 -4.417969 1.714844 -4.480469 1.777344 -4.542969 Z M 1.777344 -4.542969 "/></g></g></g><g fill="#000000" fill-opacity="1"><g transform="translate(286.194873, 64.341223)"><g><path d="M 10.171875 -4.980469 L 9.070312 -6.105469 C 8.984375 -6.207031 8.859375 -6.253906 8.695312 -6.253906 L 6.457031 -6.253906 C 6.292969 -6.253906 6.179688 -6.207031 6.082031 -6.105469 L 5.453125 -5.46875 L 4.828125 -6.105469 C 4.730469 -6.207031 4.617188 -6.253906 4.453125 -6.253906 L 1.988281 -6.253906 C 1.828125 -6.253906 1.714844 -6.207031 1.613281 -6.105469 L 0.511719 -4.980469 C 0.4375 -4.890625 0.375 -4.777344 0.375 -4.652344 L 0.375 -0.1875 C 0.375 -0.0859375 0.460938 0 0.5625 0 L 1.402344 0 C 1.5 0 1.589844 -0.0859375 1.589844 -0.1875 L 1.589844 -4.277344 C 1.589844 -4.367188 1.613281 -4.429688 1.675781 -4.492188 L 2.1875 -4.980469 C 2.226562 -5.003906 2.265625 -5.015625 2.3125 -5.015625 L 4.164062 -5.015625 C 4.214844 -5.015625 4.253906 -5.003906 4.292969 -4.980469 L 4.765625 -4.542969 C 4.804688 -4.515625 4.828125 -4.464844 4.839844 -4.429688 L 4.839844 -0.1875 C 4.839844 -0.0859375 4.929688 0 5.027344 0 L 5.878906 0 C 5.980469 0 6.066406 -0.0859375 6.066406 -0.1875 L 6.066406 -4.429688 C 6.082031 -4.464844 6.105469 -4.515625 6.144531 -4.542969 L 6.617188 -4.980469 C 6.65625 -5.003906 6.691406 -5.015625 6.742188 -5.015625 L 8.40625 -5.015625 C 8.457031 -5.015625 8.496094 -5.003906 8.53125 -4.980469 L 9.007812 -4.515625 C 9.070312 -4.464844 9.09375 -4.390625 9.09375 -4.304688 L 9.09375 -0.1875 C 9.09375 -0.0859375 9.183594 0 9.28125 0 L 10.121094 0 C 10.222656 0 10.308594 -0.0859375 10.308594 -0.1875 L 10.308594 -4.652344 C 10.308594 -4.777344 10.257812 -4.890625 10.171875 -4.980469 Z M 10.171875 -4.980469 "/></g></g></g></svg>